<svg xmlns="http://www.w3.org/2000/svg" viewBox="0 0 145.73754 247.3505"><g id="Layer_2" data-name="Layer 2"><g id="Layer_1-2" data-name="Layer 1"><path d="M73.06,107.05719H0V75.65125H116.39946c.59525,27.16421-9.02922,50.52147-25.01328,72.57294,33.97891,24.2276,53.22384,56.22015,54.35136,99.12631H109.82529c-.49107-2.99175-1.13208-6.47544-1.627-9.97976-3.47405-24.60151-16.08366-43.29807-36.3343-57.3396-6.4579-4.47784-11.76612-5.02839-19.07876-.94667C36.77714,188.0198,19.21388,192.07311.008,192.21474V155.93545C32.77984,153.36356,57.38464,138.76445,73.06,107.05719Z" style="fill:#7aa352"/><path d="M64.796,27.37311C64.68684,12.46818,76.41516.23472,91.0359.00311c14.432-.22863,27.177,12.17,27.27152,26.53047a27.02478,27.02478,0,0,1-26.4531,27.23827A26.59529,26.59529,0,0,1,64.796,27.37311Z" style="fill:#7aa352"/></g></g></svg>