<svg xmlns="http://www.w3.org/2000/svg" viewBox="0 0 1417.00934 301.12571"><g id="Layer_2" data-name="Layer 2"><g id="Layer_1-2" data-name="Layer 1"><path d="M328.76422,212.92552q-23.84985-7.79736-41.25-21.90039l25.5-35.7002q27.90015,21.90234,65.1001,21.90039,18.59766,0,29.5498-6.2998,10.94751-6.3003,10.9502-17.10059,0-10.1953-10.2002-15.89941-10.20264-5.69532-32.3999-8.10059-42.90455-4.79443-62.8501-20.09961Q293.20929,94.425,293.21393,65.92552a55.75555,55.75555,0,0,1,10.80029-33.90039Q314.81379,17.32981,334.314,9.22532q19.49781-8.10058,45-8.09961a147.02346,147.02346,0,0,1,42.75,6.29981,124.22425,124.22425,0,0,1,36.75,17.70019l-23.10009,34.5a93.05141,93.05141,0,0,0-54.29981-17.10058q-18.30249,0-29.25,6-10.95483,6.0044-10.95019,16.20019,0,9.89941,9.45019,15.29981,9.44971,5.40087,31.6499,8.10058,42.59547,4.80176,63.6001,21.14942,20.9956,16.355,21,44.85058,0,19.79883-11.1001,34.94922-11.102,15.15234-31.1997,23.40039-20.10279,8.24707-46.2002,8.25A158.74109,158.74109,0,0,1,328.76422,212.92552Z" style="fill:#1c1c1c"/><path d="M497.06305,45.82493a24.03543,24.03543,0,0,1-7.65039-18.2998q0-11.398,7.80029-18.59961,7.79736-7.19972,19.79981-7.2002,11.9956,0,19.80029,7.2002,7.79736,7.1997,7.7998,18.59961a24.035,24.035,0,0,1-7.6499,18.2998q-7.65015,7.20117-19.95019,7.2002Q504.70807,53.02513,497.06305,45.82493Zm-3.75,21.90039h47.09961v148.2002H493.31305Z" style="fill:#1c1c1c"/><path d="M722.36188,210.67552a48.74139,48.74139,0,0,1,8.25,28.0498,55.0197,55.0197,0,0,1-10.20118,32.84961q-10.20117,14.24561-28.79882,21.90039-18.60645,7.64941-43.20118,7.65039-24.0044,0-42-7.80078-18-7.80468-27.75-22.19922-9.75146-14.40087-9.75-33.30078a62.63967,62.63967,0,0,1,.30079-7.19922h45.2998q-.605,14.69532,8.25,22.79981,8.84472,8.09911,25.64941,8.09961,14.99854,0,24.30079-6.75,9.29589-6.75,9.30078-17.84961,0-11.40528-8.55078-17.54981-8.5503-6.14647-24.4502-6.15039-24.60206,0-43.0498-9.2998a67.68679,67.68679,0,0,1-28.5-26.25q-10.05469-16.94532-10.05079-39.4502,0-21.60059,10.35059-38.5498a70.75319,70.75319,0,0,1,28.7998-26.40039q18.44971-9.44972,42.1504-9.4502a77.92747,77.92747,0,0,1,33.5996,7.2002l17.4004-21.59961,34.5,24.89941L714.4107,97.42552q15,17.09911,15,40.7998a60.46807,60.46807,0,0,1-7.94921,30.4502,64.55489,64.55489,0,0,1-22.34961,22.95019Q714.10894,198.52952,722.36188,210.67552Zm-48.45118-46.9502q9.59766-9.59766,9.60157-25.5,0-15.89795-9.45118-25.34961-9.4497-9.45117-25.3496-9.45019-15.60353,0-25.2002,9.45019-9.605,9.44972-9.60059,25.34961,0,15.60205,9.60059,25.34961,9.59766,9.75293,25.2002,9.75Q664.30621,173.32493,673.9107,163.72532Z" style="fill:#1c1c1c"/><path d="M873.4107,73.57493a64.48385,64.48385,0,0,1,27.15039,25.80078q9.44971,16.64942,9.4502,38.84961a129.0048,129.0048,0,0,1-1.5,17.7002H799.6109q2.09619,11.40381,12.2998,18.45019,10.19532,7.05175,26.10059,7.04981a71.55152,71.55152,0,0,0,21.59961-3.29981,54.69572,54.69572,0,0,0,18-9.30078l24.60059,26.40039a87.347,87.347,0,0,1-29.85059,18,106.29863,106.29863,0,0,1-36.75,6.29981q-25.80469,0-44.7002-9.4502a68.18405,68.18405,0,0,1-29.09961-26.84961q-10.20263-17.395-10.20019-41.09961,0-22.79589,10.0498-40.5a69.921,69.921,0,0,1,28.05079-27.45019q18-9.74561,41.69921-9.75Q855.711,64.42552,873.4107,73.57493Zm-63.44921,35.25q-8.85353,7.20117-10.05079,20.10059h65.40039q-.8994-12.895-9.45019-20.10059-8.5503-7.1997-22.9502-7.19922Q818.80719,101.62571,809.96149,108.82493Z" style="fill:#1c1c1c"/><path d="M1091.50738,5.92552v210h-40.7998l-3-17.7002q-18.89942,20.69971-49.2002,20.7002-20.6997,0-36.75-9.75a66.84558,66.84558,0,0,1-25.0498-27.29981q-9-17.55029-9-40.05078,0-22.5,9-40.0498a66.87,66.87,0,0,1,25.0498-27.29981q16.0459-9.7456,36.75-9.75,27.2959,0,45.90039,17.09961V5.92552ZM1035.108,168.97532q9.89941-10.35059,9.89941-27.15039,0-16.79736-9.89941-27.14941-9.90089-10.35058-25.5-10.35059-15.60206,0-25.35059,10.5-9.75146,10.50587-9.75,27,0,16.50293,9.75,27,9.74561,10.50587,25.35059,10.5Q1025.20269,179.32493,1035.108,168.97532Z" style="fill:#1c1c1c"/><path d="M1231.9068,68.17552A50.34434,50.34434,0,0,1,1249.606,79.12571l-19.79981,34.5a56.759,56.759,0,0,0-11.70019-5.70019,35.81072,35.81072,0,0,0-11.39942-1.79981q-15.00439,0-23.70019,9.59961-8.70411,9.605-8.7002,28.2002v72H1127.2066V67.72532h41.09961l3.60059,18.59961q14.39942-21.895,39.59961-21.89941A58.8149,58.8149,0,0,1,1231.9068,68.17552Z" style="fill:#1c1c1c"/><path d="M1417.00934,67.72532v148.2002h-40.79981l-3-17.7002q-18.89941,20.69971-49.20019,20.7002-20.69971,0-36.75-9.75a66.84561,66.84561,0,0,1-25.04981-27.29981q-9-17.55029-9-40.05078,0-22.5,9-40.0498a66.87,66.87,0,0,1,25.04981-27.29981q16.04589-9.7456,36.75-9.75a71.12055,71.12055,0,0,1,27.60058,5.25,60.00365,60.00365,0,0,1,21.59961,15.15039l3-17.40039Zm-56.39942,101.25q9.89942-10.35059,9.89942-27.15039,0-16.79736-9.89942-27.14941-9.90087-10.35058-25.5-10.35059-15.602,0-25.35058,10.5-9.75147,10.50587-9.75,27,0,16.50293,9.75,27,9.7456,10.50587,25.35058,10.5Q1350.70466,179.32493,1360.60992,168.97532Z" style="fill:#1c1c1c"/><path d="M73.06,107.05719H0V75.65125H116.39946c.59525,27.16421-9.02922,50.52147-25.01328,72.57294,33.97891,24.2276,53.22384,56.22015,54.35136,99.12631H109.82529c-.49107-2.99175-1.13208-6.47544-1.627-9.97976-3.47405-24.60151-16.08366-43.29807-36.3343-57.3396-6.4579-4.47784-11.76612-5.02839-19.07876-.94667C36.77714,188.0198,19.21388,192.07311.008,192.21474V155.93545C32.77984,153.36356,57.38464,138.76445,73.06,107.05719Z" style="fill:#7aa352"/><path d="M64.796,27.37311C64.68684,12.46818,76.41516.23472,91.0359.00311c14.432-.22863,27.177,12.17,27.27152,26.53047a27.02478,27.02478,0,0,1-26.4531,27.23827A26.59529,26.59529,0,0,1,64.796,27.37311Z" style="fill:#7aa352"/></g></g></svg>