<svg xmlns="http://www.w3.org/2000/svg" viewBox="0 0 178.58002 303.0885"><g id="Layer_2" data-name="Layer 2"><g id="Layer_1-2" data-name="Layer 1"><path d="M80.92692,31.774C80.80021,14.47272,94.41412.27247,111.38547.00361c16.75227-.26538,31.5463,14.1266,31.656,30.79585a31.36962,31.36962,0,0,1-30.706,31.61743,30.87107,30.87107,0,0,1-31.40466-30.3281h0Q80.92806,31.93139,80.92692,31.774Z" style="fill:#7cba60"/><path d="M178.58,286.94849v16.04a.30821.30821,0,0,1-.01.1H131.48v-.01c-3.2-24.8-13.98-47.87-29.82-66.75a139.43716,139.43716,0,0,0-21.9-20.99,134.56978,134.56978,0,0,1-69.56,20.97c-.79.01-1.58.02-2.36.02q-3.945,0-7.84-.23V189.22845c2.68-.32995,5.35-.74,7.98-1.23.01.01.01.01.02,0a131.15412,131.15412,0,0,0,52.21-22.09,132.34408,132.34408,0,0,0,33.54-34.52H0v-47.1H141.51a123.4793,123.4793,0,0,1,1.11,15.67005v1.12a135.26548,135.26548,0,0,1-3.42,30.31,134.69855,134.69855,0,0,1-25.02,52.65q4.065,2.46,7.94,5.19,4.83,3.405,9.36,7.21a139.71338,139.71338,0,0,1,11.14,10.49C163.12,228.48846,176.62,256.62848,178.58,286.94849Z" style="fill:#7cba60"/></g></g></svg>