<svg xmlns="http://www.w3.org/2000/svg" viewBox="0 0 1425.0094 303.0885"><g id="Layer_2" data-name="Layer 2"><g id="Layer_1-2" data-name="Layer 1"><path d="M336.76422,211.79991q-23.84985-7.79736-41.25-21.90039l25.5-35.70019q27.90015,21.90234,65.1001,21.90039,18.5977,0,29.5498-6.29981,10.94755-6.30027,10.9502-17.10058,0-10.19529-10.2002-15.89942-10.20258-5.69531-32.3999-8.10058-42.9045-4.79445-62.8501-20.09961-19.95483-15.30033-19.95019-43.79981a55.75554,55.75554,0,0,1,10.80029-33.90039Q322.81379,16.2042,342.314,8.09971q19.49779-8.10057,45-8.09961a147.02373,147.02373,0,0,1,42.75,6.29981,124.22429,124.22429,0,0,1,36.75,17.70019l-23.1001,34.5a93.0516,93.0516,0,0,0-54.29981-17.10058q-18.30249,0-29.25,6-10.95483,6.00441-10.95019,16.20019,0,9.8994,9.45019,15.29981,9.44972,5.40087,31.64991,8.10058,42.59545,4.80175,63.60009,21.14942,20.99561,16.355,21,44.85057,0,19.79883-11.10009,34.94922-11.102,15.15232-31.19971,23.40039-20.10279,8.24706-46.2002,8.25A158.741,158.741,0,0,1,336.76422,211.79991Z" style="fill:#1a1a1a"/><path d="M730.36188,210.67552a48.74134,48.74134,0,0,1,8.25,28.0498A55.01959,55.01959,0,0,1,728.41071,271.575q-10.20119,14.24561-28.79883,21.90039-18.60645,7.64942-43.20117,7.65039-24.0044,0-42-7.80078-18-7.8047-27.75-22.19922-9.75147-14.40089-9.75-33.30078a62.62881,62.62881,0,0,1,.30078-7.19921h45.2998q-.605,14.69529,8.25,22.79981,8.84474,8.0991,25.64942,8.09962,14.99853,0,24.30078-6.75,9.29589-6.75,9.30078-17.84961,0-11.40529-8.55078-17.5498-8.5503-6.1465-24.4502-6.15041-24.60206,0-43.0498-9.2998a67.68657,67.68657,0,0,1-28.5-26.25q-10.05469-16.94534-10.05078-39.4502,0-21.60057,10.35058-38.5498A70.75316,70.75316,0,0,1,614.5611,73.27514q18.4497-9.4497,42.15039-9.4502a77.92723,77.92723,0,0,1,33.59961,7.2002l17.40039-21.59961,34.5,24.89941L722.41071,97.42552q15,17.0991,15,40.7998a60.4684,60.4684,0,0,1-7.94922,30.4502,64.55484,64.55484,0,0,1-22.34961,22.95019Q722.10894,198.52952,730.36188,210.67552Zm-48.45117-46.9502q9.59764-9.59766,9.60156-25.5,0-15.898-9.45117-25.34961-9.44971-9.45118-25.34961-9.45019-15.60353,0-25.2002,9.45019-9.605,9.44973-9.60058,25.34961,0,15.60205,9.60058,25.34961,9.59766,9.75293,25.2002,9.75Q672.30621,173.32493,681.91071,163.72532Z" style="fill:#1a1a1a"/><path d="M881.41071,73.57492A64.48429,64.48429,0,0,1,908.5611,99.3757q9.4497,16.64942,9.45019,38.8496a129.00006,129.00006,0,0,1-1.5,17.7002H807.6109q2.09619,11.40381,12.29981,18.4502,10.19531,7.05173,26.10058,7.0498a71.55183,71.55183,0,0,0,21.59961-3.2998,54.69541,54.69541,0,0,0,18-9.30079l24.60059,26.40039a87.34655,87.34655,0,0,1-29.85059,18,106.29845,106.29845,0,0,1-36.75,6.29981q-25.80468,0-44.70019-9.4502A68.184,68.184,0,0,1,769.8111,183.2253q-10.20264-17.395-10.2002-41.0996,0-22.79587,10.04981-40.5a69.921,69.921,0,0,1,28.05078-27.45018q18-9.74562,41.69922-9.75Q863.711,64.42552,881.41071,73.57492Zm-63.44922,35.25q-8.85353,7.20117-10.05078,20.1006H873.3111q-.89941-12.895-9.4502-20.10058-8.55029-7.1997-22.95019-7.19922Q826.80719,101.62569,817.96149,108.82492Z" style="fill:#1a1a1a"/><path d="M1086.44681,25.57061l5.44681,176.34043-30.97873-4.766-5.20737-4.84527q-18.89941,20.6997-49.2002,20.70019-20.6997,0-36.75-9.75a66.846,66.846,0,0,1-25.0498-27.2998q-9-17.5503-9-40.05078,0-22.5,9-40.04981a66.87056,66.87056,0,0,1,25.0498-27.29981q16.04591-9.74561,36.75-9.75,27.29591,0,45.90039,17.09961l13.954,19.118ZM1043.108,163.04981q9.89942-10.35059,9.89942-27.15039,0-16.79737-9.89942-27.14943-9.90087-10.35055-25.5-10.35057-15.60195,0-25.35058,10.5-9.75138,10.50586-9.75,27,.00009,16.50292,9.75,27,9.7457,10.50588,25.35058,10.5Q1033.20257,173.39942,1043.108,163.04981Z" style="fill:#1a1a1a"/><path d="M1239.90686,68.17552A50.34494,50.34494,0,0,1,1257.606,79.1257l-19.79981,34.5a56.75859,56.75859,0,0,0-11.70019-5.70018,35.81135,35.81135,0,0,0-11.39942-1.79982q-15.00439,0-23.70019,9.59961-8.70411,9.605-8.7002,28.20021v72h-47.09961V67.72531h41.09961l3.60059,18.59961q14.39942-21.895,39.59961-21.8994A58.81483,58.81483,0,0,1,1239.90686,68.17552Z" style="fill:#1a1a1a"/><rect x="501.23809" y="68.19725" width="47.09961" height="148.20019" style="fill:#1a1a1a"/><path d="M498.17089,27.23114c-.1086-14.82763,11.5589-26.99763,26.1038-27.228C538.63184-.22435,551.31072,12.11,551.40475,26.396A26.88458,26.88458,0,0,1,525.0889,53.493a26.45734,26.45734,0,0,1-26.91464-25.992h0Q498.17188,27.36606,498.17089,27.23114Z" style="fill:#1a1a1a"/><path d="M80.92692,31.774C80.80021,14.47272,94.41412.27247,111.38547.00361c16.75227-.26538,31.5463,14.1266,31.656,30.79585a31.36962,31.36962,0,0,1-30.706,31.61743,30.87107,30.87107,0,0,1-31.40466-30.3281h0Q80.92806,31.93139,80.92692,31.774Z" style="fill:#7cba60"/><path d="M178.58,286.94849v16.04a.30821.30821,0,0,1-.01.1H131.48v-.01c-3.2-24.8-13.98-47.87-29.82-66.75a139.43716,139.43716,0,0,0-21.9-20.99,134.56978,134.56978,0,0,1-69.56,20.97c-.79.01-1.58.02-2.36.02q-3.945,0-7.84-.23V189.22845c2.68-.32995,5.35-.74,7.98-1.23.01.01.01.01.02,0a131.15412,131.15412,0,0,0,52.21-22.09,132.34408,132.34408,0,0,0,33.54-34.52H0v-47.1H141.51a123.4793,123.4793,0,0,1,1.11,15.67005v1.12a135.26548,135.26548,0,0,1-3.42,30.31,134.69855,134.69855,0,0,1-25.02,52.65q4.065,2.46,7.94,5.19,4.83,3.405,9.36,7.21a139.71338,139.71338,0,0,1,11.14,10.49C163.12,228.48846,176.62,256.62848,178.58,286.94849Z" style="fill:#7cba60"/><rect x="1053.00745" width="46.49988" height="209.74083" style="fill:#1a1a1a"/><path d="M1414.3983,110.79593l2.99739,97.04062L1386.417,203.0706l-5.20738-4.84528q-18.8994,20.6997-49.20019,20.7002-20.69971,0-36.75-9.75a66.846,66.846,0,0,1-25.04981-27.29981q-9-17.55029-9-40.05078,0-22.5,9-40.04981a66.87052,66.87052,0,0,1,25.04981-27.29981q16.04591-9.7456,36.75-9.75,27.29591,0,45.90039,17.09961l13.954,19.118Zm-45.78819,58.17939q9.89941-10.35059,9.89941-27.15039,0-16.79736-9.89941-27.14942-9.90089-10.35057-25.5-10.35058-15.602,0-25.35059,10.5-9.75137,10.50587-9.75,27,.00009,16.50293,9.75,27,9.7457,10.50588,25.35059,10.5Q1358.70465,179.32493,1368.61011,168.97532Z" style="fill:#1a1a1a"/><rect x="1378.50952" y="67.01742" width="46.49988" height="148.64892" style="fill:#1a1a1a"/></g></g></svg>